<svg xmlns="http://www.w3.org/2000/svg" x="0px" y="0px"
width="64" height="64"
viewBox="0 0 172 172"
style=" fill:#000000;"><g fill="none" fill-rule="nonzero" stroke="none" stroke-width="1" stroke-linecap="butt" stroke-linejoin="miter" stroke-miterlimit="10" stroke-dasharray="" stroke-dashoffset="0" font-family="none" font-weight="none" font-size="none" text-anchor="none" style="mix-blend-mode: normal"><path d="M0,172v-172h172v172z" fill="none"></path><g fill="#ff3561"><path d="M133.28583,1.3175c-0.25799,-0.01496 -0.52385,-0.00735 -0.7926,0.02625c-0.94063,0.13438 -1.74582,0.53802 -2.28332,1.2099l-5.375,5.375c-3.89688,3.89687 -9.00418,6.45 -14.51355,6.71875c-6.31562,0.40312 -12.36197,-1.88283 -16.93072,-6.3172l-5.77917,-5.77655c-0.67187,-0.67187 -1.47708,-1.07552 -2.28333,-1.2099c-2.15,-0.26875 -4.0323,1.21042 -4.43542,3.09167l-29.96405,133.4328c-0.80625,3.62813 -0.80573,7.3901 -0.13385,10.88385c0.40312,2.41875 1.2078,4.83907 2.41718,6.98907c0.94062,1.88125 0.4026,4.16615 -1.2099,5.24115c-0.67187,0.5375 -1.47708,0.67188 -2.28333,0.67188c-1.47812,0 -2.82083,-0.80835 -3.62708,-2.1521c-1.74687,-3.35937 -2.82187,-6.9875 -3.35937,-10.75c-0.13437,-1.075 -0.94062,-2.01458 -2.01562,-2.28333l-18.67865,-4.29895c-4.3,-0.94063 -8.73385,-0.00052 -12.2276,2.82135c-3.62812,2.95625 -5.64375,7.39063 -5.375,12.09375c0.40313,7.65938 7.12135,13.57135 14.9151,13.57135h101.72082h0.53803h0.40417h0.2677c2.15,-0.5375 3.76145,-2.8224 2.9552,-5.24115c-0.5375,-1.6125 -2.1479,-2.6875 -3.89478,-2.6875c-2.15,0 -3.8974,-1.88125 -3.8974,-4.03125v-0.53802l-0.67187,-25.12708c0,-2.28438 1.74687,-4.03125 4.03125,-4.03125c2.15,0 4.03125,1.74687 4.03125,4.03125l0.13385,22.17188c4.70313,1.6125 8.0625,6.18125 8.0625,11.42188v1.07605c-0.13438,1.6125 0.94115,2.9552 2.55365,2.9552h4.4328c8.0625,0 15.72397,-3.22552 20.9646,-9.2724c5.64375,-6.45 7.79165,-15.18437 5.9104,-23.51562l-29.96405,-133.4328c-0.35273,-1.76367 -1.83689,-3.0132 -3.64282,-3.11792zM95.40625,41.65625c2.28437,0 4.03125,1.74687 4.03125,4.03125c0,2.28438 -1.74688,4.03125 -4.03125,4.03125c-2.28437,0 -4.03125,-1.74687 -4.03125,-4.03125c0,-2.28438 1.74688,-4.03125 4.03125,-4.03125zM122.28125,41.65625c2.28437,0 4.03125,1.74687 4.03125,4.03125c0,2.28438 -1.74688,4.03125 -4.03125,4.03125c-2.28437,0 -4.03125,-1.74687 -4.03125,-4.03125c0,-2.28438 1.74688,-4.03125 4.03125,-4.03125zM96.61615,129c2.28437,0 4.03125,1.74687 4.03125,4.03125l0.13385,24.72552c0,2.28438 -1.74688,4.03125 -4.03125,4.03125c-2.28437,0 -4.03125,-1.74687 -4.03125,-4.03125l-0.13385,-24.72552c0,-2.28438 1.74687,-4.03125 4.03125,-4.03125z"></path></g></g></svg>