<svg xmlns="http://www.w3.org/2000/svg" x="0px" y="0px"
width="64" height="64"
viewBox="0 0 172 172"
style=" fill:#000000;"><g fill="none" fill-rule="nonzero" stroke="none" stroke-width="1" stroke-linecap="butt" stroke-linejoin="miter" stroke-miterlimit="10" stroke-dasharray="" stroke-dashoffset="0" font-family="none" font-weight="none" font-size="none" text-anchor="none" style="mix-blend-mode: normal"><path d="M0,172v-172h172v172z" fill="none"></path><g fill="#ff3561"><path d="M107.5,0v21.5l-13.95541,27.91081c-2.4295,4.859 -7.39644,7.92253 -12.82161,7.92253h-42.02018l-12.19173,-12.17773c-2.86667,-2.86667 -7.15547,-2.86667 -10.02214,0c-2.86667,2.86667 -2.86667,7.15547 0,10.02214l12.17773,12.19173v11.46387v14.33333l-6.20085,12.40169c-0.63783,1.27567 -1.09325,2.64741 -1.32975,4.05924l-5.24902,31.53614c-0.817,4.88767 2.95636,9.33626 7.90853,9.33626c3.86283,0 7.18503,-2.74561 7.89453,-6.53678l4.14323,-22.12989l14.33333,-14.33333h46.98926l14.55729,38.10091c1.13233,2.9455 3.95017,4.89909 7.11067,4.89909c5.06683,0 8.71814,-4.84803 7.32064,-9.71419l-7.89453,-27.44889v-5.83691l9.23828,-18.47656c0.99617,-1.98517 1.51172,-4.18914 1.51172,-6.41081v-32.44597h5.43099c5.70467,0 11.17351,-2.26399 15.20117,-6.29883l8.03451,-8.03451v-10.75c0,-1.978 -1.60533,-3.58333 -3.58333,-3.58333h-10.75l-5.06706,-5.06706c-1.34733,-1.34733 -3.16789,-2.09961 -5.06706,-2.09961h-7.78256l-6.4528,-8.5944c-2.709,-3.612 -6.94886,-5.73893 -11.46386,-5.73893zM56.10156,121.83333l-2.81348,2.81348l7.57259,20.80013c1.10367,3.0315 4.00449,5.05306 7.23665,5.05306c5.2675,0 8.97032,-5.18811 7.26465,-10.17611l-6.31283,-18.49056z"></path></g></g></svg>