<svg xmlns="http://www.w3.org/2000/svg" x="0px" y="0px"
width="64" height="64"
viewBox="0 0 172 172"
style=" fill:#000000;"><g fill="none" fill-rule="nonzero" stroke="none" stroke-width="1" stroke-linecap="butt" stroke-linejoin="miter" stroke-miterlimit="10" stroke-dasharray="" stroke-dashoffset="0" font-family="none" font-weight="none" font-size="none" text-anchor="none" style="mix-blend-mode: normal"><path d="M0,172v-172h172v172z" fill="none"></path><g fill="#ff3561"><path d="M5.375,1.34375c-2.28438,0 -4.03125,1.74687 -4.03125,4.03125c0,2.28437 1.74687,4.03125 4.03125,4.03125h161.25c2.28438,0 4.03125,-1.74688 4.03125,-4.03125c0,-2.28438 -1.74687,-4.03125 -4.03125,-4.03125zM99.4375,41.65625c-2.28437,0 -4.03125,1.74687 -4.03125,4.03125v116.90625h-90.03125c-2.28438,0 -4.03125,1.74687 -4.03125,4.03125c0,2.28438 1.74687,4.03125 4.03125,4.03125h161.25c2.28438,0 4.03125,-1.74687 4.03125,-4.03125v-120.9375c0,-2.28438 -1.74687,-4.03125 -4.03125,-4.03125zM46.98138,81.70105c-1.02461,0 -2.03242,0.40103 -2.77148,1.20728c-1.6125,1.6125 -1.6125,4.1672 0,5.64532l13.30365,13.30365h-52.13855c-2.28438,0 -4.03125,1.74688 -4.03125,4.03125c0,2.28438 1.74687,4.29895 4.03125,4.29895h52.13855l-13.30365,13.30365c-1.6125,1.6125 -1.6125,4.16457 0,5.6427c0.80625,0.80625 1.88072,1.2099 2.82135,1.2099c0.94063,0 2.0151,-0.40365 2.82135,-1.2099l20.15625,-20.15625c0.13438,-0.13437 0.40365,-0.40312 0.53803,-0.67187c0,-0.13437 0.13385,-0.13332 0.13385,-0.2677c0.13438,-0.13437 0.13595,-0.2698 0.27032,-0.40418c0,-0.13437 0.13385,-0.26718 0.13385,-0.40155c0,-0.13437 0.13385,-0.2698 0.13385,-0.40417c0.13438,-0.5375 0.13438,-1.07395 0,-1.61145c0,-0.13437 -0.13385,-0.2698 -0.13385,-0.40417c0,-0.13437 -0.13385,-0.2698 -0.13385,-0.40417c0,-0.13437 -0.13595,-0.26718 -0.27032,-0.40155c0,-0.13437 -0.13385,-0.27032 -0.13385,-0.27032c-0.13438,-0.26875 -0.26928,-0.40313 -0.53803,-0.67187l-20.15625,-20.15625c-0.80625,-0.80625 -1.84661,-1.20728 -2.87121,-1.20728zM119.59375,99.4375c2.28437,0 4.03125,1.74688 4.03125,4.03125v5.375c0,2.28437 -1.74688,4.03125 -4.03125,4.03125c-2.28437,0 -4.03125,-1.74688 -4.03125,-4.03125v-5.375c0,-2.28437 1.74688,-4.03125 4.03125,-4.03125z"></path></g></g></svg>